inDegrees=no
num_controls=7
num_derivatives=13
num_iterations=119
num_multipliers=7
num_parameters=0
num_slacks=7
num_states=26
objective=0.497025
objective_accelerations=0.032133
objective_balance=0.003267
objective_effort=0.034990
objective_height=0.421151
objective_ligament=0.005483
solver_duration=1389.899090
status=Solve_Succeeded
success=true
DataType=double
version=3
OpenSimVersion=4.5
endheader
time	/jointset/ground_pelvis/pelvis_tilt/value	/jointset/ground_pelvis/pelvis_tx/value	/jointset/ground_pelvis/pelvis_ty/value	/jointset/hip_r/hip_flexion_r/value	/jointset/hip_r/hip_adduction_r/value	/jointset/hip_r/hip_rotation_r/value	/jointset/back/lumbar_extension/value	/jointset/patellofemoral_r/patellar_flexion_r/value	/jointset/knee_r/knee_flexion_r/value	/jointset/knee_r/knee_adduction_r/value	/jointset/knee_r/knee_rotation_r/value	/jointset/ankle_r/ankle_angle_r/value	/jointset/subtalar_r/subtalar_angle_r/value	/jointset/ground_pelvis/pelvis_tilt/speed	/jointset/ground_pelvis/pelvis_tx/speed	/jointset/ground_pelvis/pelvis_ty/speed	/jointset/hip_r/hip_flexion_r/speed	/jointset/hip_r/hip_adduction_r/speed	/jointset/hip_r/hip_rotation_r/speed	/jointset/back/lumbar_extension/speed	/jointset/patellofemoral_r/patellar_flexion_r/speed	/jointset/knee_r/knee_flexion_r/speed	/jointset/knee_r/knee_adduction_r/speed	/jointset/knee_r/knee_rotation_r/speed	/jointset/ankle_r/ankle_angle_r/speed	/jointset/subtalar_r/subtalar_angle_r/speed	/forceset/tau_hip_flexion_r	/forceset/tau_hip_adduction_r	/forceset/tau_hip_rotation_r	/forceset/tau_knee_flexion_r	/forceset/tau_ankle_angle_r	/forceset/tau_subtalar_angle_r	/forceset/tau_lumbar_extension	lambda_cid13_p0	lambda_cid14_p0	lambda_cid14_p1	lambda_cid14_p2	lambda_cid14_p3	lambda_cid14_p4	lambda_cid14_p5	/jointset/ground_pelvis/pelvis_tilt/accel	/jointset/ground_pelvis/pelvis_tx/accel	/jointset/ground_pelvis/pelvis_ty/accel	/jointset/hip_r/hip_flexion_r/accel	/jointset/hip_r/hip_adduction_r/accel	/jointset/hip_r/hip_rotation_r/accel	/jointset/back/lumbar_extension/accel	/jointset/patellofemoral_r/patellar_flexion_r/accel	/jointset/knee_r/knee_flexion_r/accel	/jointset/knee_r/knee_adduction_r/accel	/jointset/knee_r/knee_rotation_r/accel	/jointset/ankle_r/ankle_angle_r/accel	/jointset/subtalar_r/subtalar_angle_r/accel	gamma_cid13_p0	gamma_cid14_p0	gamma_cid14_p1	gamma_cid14_p2	gamma_cid14_p3	gamma_cid14_p4	gamma_cid14_p5
0	-0.006481189864785335	0.09624587035802235	0.9427242348532253	0.1762555222360518	-0.2321576695260461	-0.2614073879776628	-0.038598046466844	0.07317863873455413	0.07317863873451017	0.1745247221848436	0.1743088113356481	0.03247278518263602	-0.003460483922321161	0	0	0	0	0	0	0	0	0	0	0	0	0	0.2157141164191476	-0.1533754505738455	-0.04340469135715919	-0.4011616868663601	0.4029209065620696	-0.1504762189896416	-0.1125989906154914	-39.0697444311559	79.53699407807117	-41.61821888344174	-4.107189535305653	-36.4792506315173	-679.7133339698498	52.21774130514	-1.234268298394894	-0.8318171047046584	-0.4833961756791998	7.32046753677756	0.2297498713487922	2.30274051287787	-4.820479461891946	8.433233173062028	8.43323317306179	-2.739893198144569	0.08940025911969876	3.157701150715197	0.9537597485774044	9.147319390485455e-08	5.740817793376818e-08	-6.003031224158549e-07	1.935314636972742e-07	2.439115681727642e-08	3.814675760116832e-08	-3.041656970726651e-07
0.01	-0.006538291453295974	0.09620661613870153	0.9427010820453389	0.1766080315254245	-0.2321451034684527	-0.2612844195762056	-0.03884019412683059	0.07358842993914172	0.07358842993909766	0.1743878781938151	0.1743021707887197	0.03262920074162019	-0.003412086905279281	-0.01144711357101215	-0.007642473535447232	-0.004619609043468976	0.07005503352693036	0.002449010945432799	0.02445251461599364	-0.04805116124966357	0.08160909323460878	0.08160909323460731	-0.02712644606931132	-0.001280616023809474	0.03134451692763308	0.009627943045698141	0.2176845465123581	-0.1695019141781083	-0.04435995993431677	-0.4095479016564641	0.4151467208425289	-0.1396877381740846	-0.1131079023137201	-39.08327429555139	83.90906225273551	-36.25779407627792	-4.858381759342459	-41.40060678729802	-680.5228614055985	63.43409518654974	-1.103947423965532	-0.6992020536180725	-0.449592759161712	6.781002733360031	0.2427858440838259	2.495378897364267	-4.740678842256703	7.972356952461889	7.972356952461746	-2.662741450777129	-0.2296126577456513	3.132054388683567	0.9595200368021388	1.199816321287121e-07	5.966878816947423e-08	-7.921209642455987e-07	1.942346060035454e-07	5.338005086871972e-08	-1.080336180626779e-07	-3.701818516308187e-07
0.02	-0.006710667085069678	0.09609718926889227	0.9426320632489206	0.1776476874445737	-0.232109985473815	-0.2609211516363059	-0.03955150227647224	0.07480383398681868	0.07480383398681698	0.1739870255141538	0.1742841600566606	0.03310090695485605	-0.003268968766932877	-0.02305480864227375	-0.0140345300976902	-0.00917319770634919	0.1374293259622104	0.004510387408593677	0.04805990768814683	-0.09383209792928822	0.1611225686212834	0.1611225686212818	-0.05280173771673098	-0.002274037032189391	0.06305813085110135	0.01894422426083724	0.2196549766056062	-0.1856283777823581	-0.04531522851135039	-0.4179341164465772	0.4273725351230037	-0.1288992573585118	-0.1136168140119189	-39.12325033654475	88.35660966390722	-30.90751242234794	-5.581273723664801	-46.49875431858121	-680.1872328583396	74.42108116712448	-1.266384598443587	-0.5817337100649471	-0.4701920995614157	6.784319318447694	0.1522229748943904	2.133716204109674	-4.366434547883455	8.014109603475404	8.014109603475452	-2.449662313766262	0.1468392622057358	3.231520549880985	0.8914273824652845	1.484900703525697e-07	6.19293984051803e-08	-9.839388060753425e-07	1.949377483098166e-07	8.236894492016302e-08	-2.542139937265241e-07	-4.361980061889723e-07
0.03	-0.006999028177341319	0.09592775109589821	0.9425176100726401	0.1793497505185339	-0.2320563194264506	-0.2603285074981659	-0.04070976436786291	0.07680469924660169	0.07680469924658667	0.1733370919721078	0.1742599366014627	0.03388883726973733	-0.003034971479021677	-0.03451723662849725	-0.01987772158570101	-0.01372147837820531	0.202690208018048	0.006173473131890445	0.07033928742955722	-0.1375301645728151	0.2387088034987177	0.2387088034987163	-0.07696201198472558	-0.002568085710087671	0.09431078247817663	0.02775631067599497	0.2114442347094805	-0.1919348586073375	-0.04281658272508844	-0.405543931870878	0.405982295793112	-0.1152038691405199	-0.1074317200936578	-39.18873720327244	82.02524033083037	-26.15858042396438	-6.235127194903609	-42.2192899203733	-679.623909455715	82.60961860784708	-1.071130216994007	-0.5892878430007403	-0.4478036085915671	6.353020781582364	0.1658402822130579	2.25565885017604	-4.327969354191983	7.579598641851425	7.579598641851336	-2.365899243399689	-0.1170716047353327	3.039594447487459	0.8611274362702643	1.698638761162122e-07	6.840758258430881e-08	-1.121517632179517e-06	2.223712279006736e-07	9.702260794550922e-08	-3.366850652413808e-07	-5.033585220583662e-07
0.04	-0.007399005213178811	0.09569914581305457	0.9423575425781213	0.1816956320395036	-0.2319875247396172	-0.2595169475644025	-0.04229630245201747	0.07957117049754923	0.07957117049754761	0.1724522178353523	0.1742328637250907	0.03498278549656019	-0.002715847693912918	-0.04537799734582385	-0.02586795206760336	-0.01829606135397996	0.2661930153710897	0.007536115301817788	0.09184306681173694	-0.1794872964803729	0.3142437668551131	0.3142437668551115	-0.09978985665606603	-0.002843921265890262	0.1242617132399061	0.03596952370031962	0.2032334928133587	-0.1982413394323161	-0.0403179369388253	-0.3931537472951859	0.3845920564632225	-0.1015084809225265	-0.1012466261753869	-39.27857580377961	75.76292948616677	-21.40982873926943	-6.874933774034236	-38.11500073964088	-678.0354955456615	90.60914133095811	-1.146051144663047	-0.6111415088443505	-0.4754525603450857	6.432704377888737	0.09213426422054478	1.978596132263444	-4.018247600688981	7.603855299267808	7.603855299267808	-2.183176394435569	0.1504818866249701	2.971176376810638	0.7716527042984292	1.910905760559328e-07	7.497272705093058e-08	-1.257978128062547e-06	2.503558484664705e-07	1.113806991971215e-07	-4.178425428562582e-07	-5.705426330063423e-07
0.05	-0.007905299005413922	0.09541036084290395	0.9421514370504391	0.1846682629209251	-0.2319064155105196	-0.2584958008268251	-0.04429334483814595	0.08308341780760371	0.0830834178075868	0.1713454605598037	0.1742046092306582	0.03637050051480356	-0.002317165610963358	-0.05581969083929985	-0.03186570722429905	-0.02293972094458988	0.3280194709864052	0.008646916100137804	0.1122385146833699	-0.2196261318138724	0.38785217583995	0.3878521758399487	-0.1213428366993865	-0.002806922569735469	0.1531154862236475	0.04369271617671207	0.1969367043201353	-0.183340978829844	-0.03865151750533237	-0.3858111623748425	0.3755303398671264	-0.1093937535180914	-0.09630085161016484	-39.39132027779414	72.61647420711134	-25.41921247140404	-6.197020181969696	-35.941902344956	-677.0821007462438	81.22324325633441	-0.9840458097306086	-0.5905699190929956	-0.4611083969672774	6.01057618064366	0.1145960910355247	2.047924751071895	-3.96744415807578	7.186267411739446	7.18626741173942	-2.108713337082567	-0.06959403221981032	2.817645123579156	0.7613556898731758	1.842127772134742e-07	6.710207422332879e-08	-1.204463853284976e-06	2.316625908103088e-07	1.143481400410968e-07	-4.818766992838574e-07	-5.488564663259254e-07
